<svg width="191" height="136" viewBox="0 0 191 136" fill="none" xmlns="http://www.w3.org/2000/svg">
<path d="M9.55 0C14.8323 0 19.1 4.34107 19.1 9.71429V87.4286H85.95V38.8571C85.95 33.4839 90.2177 29.1429 95.5 29.1429H162.35C178.167 29.1429 191 42.1964 191 58.2857V126.286C191 131.659 186.732 136 181.45 136C176.168 136 171.9 131.659 171.9 126.286V116.571H105.05H95.5H19.1V126.286C19.1 131.659 14.8323 136 9.55 136C4.26766 136 0 131.659 0 126.286V9.71429C0 4.34107 4.26766 0 9.55 0ZM52.525 29.1429C58.857 29.1429 64.9297 31.7015 69.4072 36.256C73.8846 40.8104 76.4 46.9876 76.4 53.4286C76.4 59.8695 73.8846 66.0467 69.4072 70.6012C64.9297 75.1556 58.857 77.7143 52.525 77.7143C46.193 77.7143 40.1203 75.1556 35.6428 70.6012C31.1654 66.0467 28.65 59.8695 28.65 53.4286C28.65 46.9876 31.1654 40.8104 35.6428 36.256C40.1203 31.7015 46.193 29.1429 52.525 29.1429Z" fill="#0000FF"/>
</svg>
